<svg id="Layer_1" data-name="Layer 1" xmlns="http://www.w3.org/2000/svg" viewBox="0 0 3000 3000"><defs><style>.cls-1{font-size:220px;font-family:FONTSPRINGDEMO-TheSeasonsRegular, FONTSPRING DEMO - The Seasons;}.cls-1,.cls-2{fill:#e1dac2;}</style></defs><text class="cls-1" transform="translate(1419.97 818.16) rotate(90)"><tspan xml:space="preserve">SHRISTI  MURLI</tspan></text><path class="cls-2" d="M692.48,1662l-5.18-194.4,16.84-2.59c54.44,147.74,169.78,261.79,342.15,261.79,89.42,0,172.37-57,172.37-163.29,0-127-167.19-186.63-270.87-228.1-133.49-55.73-244.94-99.79-244.94-250.13,0-160.7,129.6-260.5,333.07-260.5,95.91,0,181.44,20.74,248.84,54.44l5.18,168.48-14.26,5.18c-53.13-133.49-163.29-206.06-289-206.06-103.68,0-185.33,60.91-185.33,163.29,0,115.35,130.9,162,234.58,203.48,132.19,50.54,289,108.86,289,264.38,0,177.55-163.3,276-312.34,276C879.1,1754,758.58,1711.2,692.48,1662Z"/><path class="cls-2" d="M1671.06,1411.78l320.11,531.36,304.56-531.36h184v18.14c-59.61,20.74-88.12,66.1-88.12,224.21v500.26c0,93.31,9.07,132.19,51.84,146.45V2319H2202.42v-18.14c42.77-14.26,51.84-53.14,51.84-146.45V1527.12l-311,545.62h-29.81l-242.28-397.42Q1671.1,1543.55,1671.06,1411.78Z"/></svg>